<svg width="118" height="21" viewBox="0 0 118 21" fill="none" xmlns="http://www.w3.org/2000/svg">
<path d="M0 6.15962L14.511 0V8.76245L27.9133 3.07335V10.1036L35.0689 7.06641V12.0551L27.9133 15.0926V12.4277L14.4971 18.1223V14.0185L0 20.1723V6.15962Z" fill="#FF441C"/>
<path fill-rule="evenodd" clip-rule="evenodd" d="M49.5777 6.21112H51.7233L54.4052 14.2541L56.5504 6.21112H59.2324L55.4777 18.0111H53.3324L50.6505 9.96554L47.9688 18.0111H45.8233L42.0689 6.21112H44.7505L46.8961 14.2541L49.5777 6.21112ZM63.6688 16.2537C65.4246 16.2537 66.7416 15.2658 66.7416 13.8162V13.0915C66.0611 12.828 65.1172 12.6304 64.0854 12.6304C62.4175 12.6304 61.4296 13.3108 61.4296 14.4966V14.5412C61.4296 15.6391 62.4175 16.2537 63.6688 16.2537ZM60.8416 6.81824C61.8217 6.4643 62.9103 6.23986 64.3312 6.23986C67.7549 6.23986 69.4232 7.94236 69.4232 11.0383V18.0111H66.7416V16.5837C65.951 17.5273 64.7923 18.2523 63.0362 18.2523C60.8416 18.2523 58.9101 17.0006 58.9101 14.6726V14.6293C58.9101 12.1253 60.9078 10.8953 63.6072 10.8953C65.0116 10.8953 65.8415 11.0932 66.7416 11.3784V11.0932C66.7416 9.48985 65.8018 8.61148 63.9582 8.61148C62.7566 8.61148 61.8094 8.85949 60.8416 9.2454V6.81824ZM71.0324 18.0111V1.92H73.714V18.0111H71.0324ZM75.3232 18.0111V1.92H78.0048L78.0584 18.0111H75.3232ZM84.0504 16.2537C85.8062 16.2537 87.1231 15.2658 87.1231 13.8162V13.0915C86.443 12.828 85.4988 12.6304 84.4673 12.6304C82.799 12.6304 81.8115 13.3108 81.8115 14.4966V14.5412C81.8115 15.6391 82.799 16.2537 84.0504 16.2537ZM81.2231 6.81824C82.2036 6.4643 83.2922 6.23986 84.7127 6.23986C88.1368 6.23986 89.8047 7.94236 89.8047 11.0383V18.0111H87.1231V16.5837C86.3329 17.5273 85.1739 18.2523 83.4178 18.2523C81.2231 18.2523 79.2917 17.0006 79.2917 14.6726V14.6293C79.2917 12.1253 81.2893 10.8953 83.9887 10.8953C85.3935 10.8953 86.2234 11.0932 87.1231 11.3784V11.0932C87.1231 9.48985 86.1837 8.61148 84.3398 8.61148C83.1381 8.61148 82.1913 8.85949 81.2231 9.2454V6.81824ZM91.4139 18.0111V6.21112H94.0955V8.82429C94.8199 7.0895 96.1261 5.90337 98.1674 5.99153V8.80233H98.0137C95.6876 8.80233 94.0955 10.3172 94.0955 13.3919V18.0111H91.4139ZM117.159 10.4054V18.0111H114.477V11.37C114.477 9.52506 113.648 8.3851 112.155 8.3851C110.707 8.3851 109.65 9.5031 109.65 11.37V18.0111H106.968V11.1962C106.968 9.39491 106.141 8.3851 104.671 8.3851C103.201 8.3851 102.141 9.56898 102.141 11.37V18.0111H99.4591V6.21112H102.141V7.96755C102.888 6.93546 103.947 5.96925 105.725 5.96925C107.393 5.96925 108.556 6.78175 109.17 8.01115C110.114 6.78175 111.343 5.96925 113.099 5.96925C115.623 5.96925 117.159 7.57261 117.159 10.4054Z" fill="#020618"/>
</svg>
